<?xml version="1.0" encoding="UTF-8" standalone="no"?><!-- Generator: Gravit.io --><svg xmlns="http://www.w3.org/2000/svg" xmlns:xlink="http://www.w3.org/1999/xlink" style="isolation:isolate" viewBox="0 0 512 512" width="512pt" height="512pt"><defs><clipPath id="_clipPath_dROQxVqNLui6hilCqDVXDKh9j7wWvaNe"><rect width="512" height="512"/></clipPath></defs><g clip-path="url(#_clipPath_dROQxVqNLui6hilCqDVXDKh9j7wWvaNe)"><rect width="512" height="512" style="fill:rgb(0,0,0)" fill-opacity="0"/><defs><linearGradient id="_lgradient_0" x1="0.5" y1="1" x2="0.5000000000000001" y2="0"><stop offset="0%" style="stop-color:#FA5D8B"/><stop offset="100%" style="stop-color:#FB4F5D"/><stop offset="100%" style="stop-color:#FF5770"/></linearGradient></defs><path d="M 100 0 L 412 0 C 467.192 0 512 44.808 512 100 L 512 412 C 512 467.192 467.192 512 412 512 L 100 512 C 44.808 512 0 467.192 0 412 L 0 100 C 0 44.808 44.808 0 100 0 Z" style="stroke:none;fill:url(#_lgradient_0);stroke-miterlimit:10;"/><defs><filter id="SheHJQsKsRDk5A47UtydB5WLlVpcV5hg" x="-200%" y="-200%" width="400%" height="400%" filterUnits="objectBoundingBox" color-interpolation-filters="sRGB"><feGaussianBlur xmlns="http://www.w3.org/2000/svg" in="SourceGraphic" stdDeviation="4.293609062839028"/><feOffset xmlns="http://www.w3.org/2000/svg" dx="3" dy="4" result="pf_100_offsetBlur"/><feFlood xmlns="http://www.w3.org/2000/svg" flood-color="#000000" flood-opacity="0.65"/><feComposite xmlns="http://www.w3.org/2000/svg" in2="pf_100_offsetBlur" operator="in" result="pf_100_dropShadow"/><feBlend xmlns="http://www.w3.org/2000/svg" in="SourceGraphic" in2="pf_100_dropShadow" mode="normal"/></filter></defs><g filter="url(#SheHJQsKsRDk5A47UtydB5WLlVpcV5hg)"><g clip-path="url(#_clipPath_yeaUm8YOtFGdbHr33Ndrr7mMhBfjikX4)"><text transform="matrix(1,0,0,1,21,391.297)" style="font-family:'Open Sans';font-weight:400;font-size:412px;font-style:normal;fill:#ffffff;stroke:none;">Aa</text></g><defs><clipPath id="_clipPath_yeaUm8YOtFGdbHr33Ndrr7mMhBfjikX4"><rect x="0" y="0" width="492" height="561.068" transform="matrix(1,0,0,1,21,-49.068)"/></clipPath></defs></g></g></svg>